<?xml version="1.0" standalone="no"?>
<!DOCTYPE svg PUBLIC "-//W3C//DTD SVG 20010904//EN"
 "http://www.w3.org/TR/2001/REC-SVG-20010904/DTD/svg10.dtd">
<svg version="1.0" xmlns="http://www.w3.org/2000/svg"
 width="400.000000pt" height="400.000000pt" viewBox="0 0 400.000000 400.000000"
 preserveAspectRatio="xMidYMid meet">
<metadata>
Created by potrace 1.11, written by Peter Selinger 2001-2013
</metadata>
<g transform="translate(0.000000,400.000000) scale(0.100000,-0.100000)"
fill="#000000" stroke="none">
<path d="M1936 3971 c-4 -6 -4 -11 1 -10 17 3 33 -1 33 -9 0 -9 -38 -29 -155
-82 -154 -71 -181 -82 -210 -92 -36 -11 -173 -49 -197 -53 -9 -2 -52 -13 -95
-26 -43 -12 -82 -22 -88 -24 -75 -16 -89 -16 -110 -5 -30 16 -48 6 -139 -84
-64 -64 -82 -96 -51 -96 13 0 19 -11 17 -31 -1 -8 38 -4 60 5 9 4 21 5 27 2 5
-3 17 1 25 10 12 11 16 12 16 2 0 -10 3 -9 10 2 9 13 10 13 10 0 1 -12 3 -11
11 3 6 10 15 14 22 10 19 -12 36 -12 44 -1 3 7 1 8 -5 4 -8 -5 -10 -1 -5 9 4
13 8 14 14 4 4 -7 15 -14 23 -15 9 -1 14 1 12 4 -2 4 2 12 9 19 11 10 15 10
19 0 5 -9 7 -9 12 1 4 9 9 10 19 2 9 -8 15 -8 20 0 3 6 11 8 16 4 5 -3 8 0 7
7 -2 6 3 14 11 17 9 3 11 0 6 -8 -5 -9 0 -8 14 3 13 8 30 13 39 10 11 -5 14
-2 10 8 -6 15 7 19 60 19 12 0 25 7 29 15 5 14 7 14 17 0 8 -11 15 -12 26 -4
12 9 11 10 -5 4 -13 -4 -16 -3 -10 3 6 6 27 12 49 15 21 3 43 11 50 18 8 9 8
10 -4 4 -8 -5 -12 -4 -7 0 14 16 45 13 40 -4 -2 -9 3 -4 12 12 8 15 18 27 21
27 3 0 2 -4 -1 -10 -9 -15 0 -12 40 10 20 11 34 16 30 10 -3 -6 0 -7 9 -4 9 3
13 11 9 17 -4 6 0 8 10 4 16 -6 71 16 62 25 -3 2 2 5 10 5 8 0 15 -4 15 -9 0
-5 6 -3 14 4 8 7 11 18 8 23 -3 6 3 3 13 -5 15 -12 17 -12 10 -1 -6 11 -4 13
8 8 10 -3 17 -2 17 3 0 6 3 9 8 8 13 -2 47 15 60 31 11 14 11 14 6 -1 -3 -10
-2 -18 4 -18 5 0 12 9 15 20 3 11 9 20 14 19 20 -3 34 2 28 11 -3 6 -1 10 4
10 6 0 11 -6 11 -12 0 -7 10 -2 21 12 15 17 19 19 15 7 -3 -11 -2 -16 4 -12 6
3 10 13 10 21 0 8 5 14 11 14 5 0 7 -6 3 -12 -6 -10 -5 -10 8 -1 8 7 19 9 24
5 4 -4 2 1 -5 11 -12 15 -12 17 1 12 9 -4 22 4 33 21 9 14 12 23 6 20 -10 -6
-15 6 -12 26 3 22 -240 50 -253 29z m-646 -435 c0 -3 -4 -8 -10 -11 -5 -3 -10
-1 -10 4 0 6 5 11 10 11 6 0 10 -2 10 -4z m-306 -64 c3 -5 -1 -9 -9 -9 -8 0
-12 4 -9 9 3 4 7 8 9 8 2 0 6 -4 9 -8z"/>
<path d="M1615 3936 c-44 -12 -86 -25 -92 -29 -7 -5 -13 -6 -13 -2 0 3 -13 -1
-30 -10 -16 -8 -31 -15 -32 -14 -12 3 -198 -86 -213 -103 -7 -8 -6 -9 3 -4 13
8 55 17 86 20 11 0 21 -4 23 -11 3 -8 -6 -10 -28 -8 -30 4 -31 3 -13 -10 11
-8 20 -9 22 -4 3 6 10 5 18 -2 11 -9 14 -7 14 12 0 22 0 22 16 3 8 -10 13 -13
9 -6 -4 8 1 12 15 12 13 0 19 4 14 11 -4 7 1 7 16 -1 20 -11 22 -10 16 5 -5
15 -4 16 8 6 12 -10 18 -9 32 8 13 14 22 17 34 11 18 -10 30 -4 30 14 0 6 -5
4 -10 -4 -5 -8 -10 -10 -10 -4 0 19 12 24 31 13 16 -8 21 -6 29 13 5 13 9 18
9 12 1 -6 7 -11 15 -11 11 0 12 4 3 18 -6 10 -15 15 -21 12 -5 -4 -6 -1 -1 7
6 10 11 10 20 -3 14 -20 35 -22 35 -4 0 8 4 7 10 -3 5 -8 10 -10 10 -4 0 5 -5
15 -11 21 -8 8 -3 18 18 37 15 14 26 25 23 25 -3 -1 -41 -11 -85 -23z m32 -31
c0 -17 -13 -20 -21 -6 -4 5 0 12 6 14 7 3 13 6 14 6 0 1 1 -6 1 -14z m-243
-100 c-4 -8 -8 -15 -10 -15 -2 0 -4 7 -4 15 0 8 4 15 10 15 5 0 7 -7 4 -15z"/>
<path d="M1670 3909 c0 -5 5 -7 10 -4 6 3 10 8 10 11 0 2 -4 4 -10 4 -5 0 -10
-5 -10 -11z"/>
<path d="M1695 3900 c-3 -5 -1 -10 4 -10 6 0 11 5 11 10 0 6 -2 10 -4 10 -3 0
-8 -4 -11 -10z"/>
<path d="M2557 3837 c10 -14 21 -23 26 -20 4 2 7 -3 7 -12 0 -9 4 -14 9 -11 5
3 11 -4 14 -15 3 -12 10 -18 16 -14 7 3 8 0 5 -10 -5 -11 -2 -14 12 -9 11 4
16 4 12 -1 -8 -9 4 -21 54 -55 21 -14 38 -33 38 -43 0 -10 4 -16 9 -13 13 8
56 -34 54 -52 -2 -13 -1 -13 4 -3 4 11 12 7 32 -15 14 -16 24 -25 21 -19 -3 6
4 1 15 -12 12 -13 27 -23 35 -23 7 0 11 -3 7 -6 -8 -8 25 -44 40 -44 7 0 20
-11 29 -25 9 -14 20 -23 24 -20 4 3 10 -5 13 -16 3 -11 15 -23 27 -26 13 -4
19 -11 16 -20 -4 -9 -2 -11 6 -7 6 4 17 -1 25 -11 7 -11 13 -15 13 -11 0 4 7
1 15 -8 8 -8 15 -19 15 -25 0 -6 3 -10 8 -10 19 3 32 -2 32 -14 0 -8 6 -14 14
-14 18 0 17 35 -1 41 -7 3 -13 12 -13 21 0 8 -4 15 -8 15 -4 0 -15 12 -24 28
-44 73 -207 241 -303 312 -33 25 -62 47 -65 51 -9 10 -124 76 -188 108 -62 31
-63 32 -45 8z"/>
<path d="M2258 3606 c-1 -2 -34 -6 -73 -9 -63 -6 -110 -13 -110 -17 0 -1 -10
-3 -23 -6 -39 -7 -147 -60 -210 -102 -146 -100 -257 -255 -307 -430 -49 -172
-50 -302 -4 -472 21 -76 84 -219 103 -232 6 -4 7 -8 2 -8 -6 0 -1 -7 10 -15
10 -8 15 -15 11 -15 -4 0 4 -12 18 -26 14 -14 22 -31 19 -37 -4 -7 -4 -9 0 -5
11 9 46 -23 39 -35 -3 -6 -2 -7 4 -4 5 3 17 -5 27 -19 11 -13 25 -24 33 -24 8
0 11 -4 8 -10 -3 -5 1 -10 9 -10 9 0 16 -8 16 -17 0 -9 3 -13 7 -10 3 4 12 -1
20 -11 8 -9 11 -11 7 -3 -5 9 2 7 18 -5 14 -10 24 -22 21 -27 -2 -4 -1 -7 4
-6 24 4 43 -3 43 -16 0 -8 5 -15 11 -15 5 0 7 4 4 10 -3 6 1 7 9 4 9 -3 14
-10 11 -14 -3 -4 2 -11 11 -14 8 -3 12 -2 9 4 -3 6 1 7 9 4 9 -3 13 -11 9 -18
-4 -6 2 -4 12 4 15 12 17 12 10 1 -6 -11 -3 -13 14 -8 14 3 24 0 28 -9 3 -8
11 -14 19 -14 8 0 14 -5 14 -12 0 -6 3 -8 6 -5 4 4 1 14 -7 24 -12 15 -12 16
1 7 8 -5 24 -9 35 -10 11 -1 26 -3 34 -5 11 -3 15 7 16 39 0 23 -4 42 -8 42
-5 0 -7 13 -5 29 2 17 1 28 -3 25 -12 -7 -17 20 -7 39 5 10 5 17 -1 17 -10 0
-9 19 2 37 4 6 3 14 -3 18 -6 4 -8 10 -5 15 3 5 0 12 -6 16 -8 5 -9 3 -4 -6 5
-9 4 -11 -3 -6 -7 4 -12 17 -12 30 0 20 -4 22 -49 20 -47 -2 -50 -1 -102 55
-74 79 -109 124 -109 139 0 6 -4 12 -8 12 -12 0 -42 56 -34 65 4 5 2 5 -4 2
-7 -4 -19 10 -29 33 -10 22 -22 40 -26 40 -4 0 -6 9 -4 20 2 11 0 18 -6 15 -5
-4 -9 2 -9 12 0 11 -6 25 -12 32 -11 11 -10 12 1 6 11 -6 13 -4 8 8 -3 9 0 18
9 21 20 8 18 26 -3 27 -16 0 -16 1 -2 7 9 4 15 15 14 24 -2 10 0 17 3 17 20
-3 25 2 12 11 -10 6 -11 10 -2 10 6 0 12 5 12 11 0 5 -5 7 -12 3 -7 -4 -8 -3
-4 4 4 7 14 12 22 12 8 0 12 5 9 10 -4 6 -11 7 -17 4 -7 -4 -8 -2 -4 5 4 6 12
8 18 5 7 -5 9 0 6 14 -4 15 -2 22 8 22 8 0 14 5 14 11 0 5 -5 7 -11 3 -8 -5
-8 -1 0 14 6 11 16 23 23 25 10 4 10 6 1 6 -7 1 -13 6 -13 12 0 5 5 7 11 3 7
-4 10 -1 7 7 -3 8 2 20 11 27 13 11 13 12 1 6 -8 -4 -5 3 8 15 25 25 30 40 6
20 -10 -8 -8 0 6 24 12 20 27 37 32 37 7 0 6 5 -1 14 -9 10 -7 17 6 27 17 13
17 13 3 -6 -14 -19 -14 -19 3 -6 10 8 16 20 13 28 -3 8 -1 11 4 8 6 -3 10 -1
10 5 0 6 5 8 12 4 7 -5 9 -2 6 8 -7 18 16 17 52 -1 22 -11 23 -10 8 2 -10 8
-15 17 -11 20 3 4 12 2 20 -4 9 -9 13 -8 13 0 0 6 5 11 11 11 5 0 7 -5 3 -12
-4 -6 3 -4 17 5 26 19 43 22 34 8 -3 -5 0 -13 6 -17 8 -4 9 -3 5 4 -4 7 -1 12
9 12 9 0 14 3 12 8 -7 11 46 12 60 0 8 -6 19 -5 35 3 26 14 80 21 73 9 -8 -13
63 -4 81 11 15 12 17 12 12 -1 -4 -11 0 -16 12 -16 11 0 16 5 12 15 -4 10 -2
12 9 5 8 -4 21 -9 29 -11 21 -3 51 -43 43 -57 -5 -7 -2 -7 8 1 13 10 18 7 34
-20 10 -18 26 -37 34 -44 9 -7 13 -13 9 -13 -7 0 17 -32 49 -65 7 -7 9 -15 6
-19 -4 -3 -1 -6 5 -6 7 0 12 -7 12 -15 0 -8 3 -15 8 -15 4 0 12 -10 18 -23 5
-12 25 -48 42 -79 26 -46 31 -66 28 -100 -2 -24 -5 -44 -6 -45 -2 -2 -3 -6 -4
-10 -30 -114 -40 -140 -93 -248 -63 -128 -95 -178 -118 -181 -52 -8 -66 -15
-61 -32 6 -18 18 -148 20 -222 1 -34 6 -46 19 -48 10 -2 15 -8 12 -13 -6 -8 2
-11 21 -8 4 0 11 -5 16 -13 8 -10 9 -10 5 2 -2 8 -10 14 -16 12 -7 -1 -10 2
-7 7 3 5 16 7 28 3 15 -4 19 -2 13 7 -6 10 -3 10 16 0 23 -12 23 -11 9 6 -14
17 -13 18 3 12 11 -4 20 -1 24 9 5 13 7 13 14 2 7 -10 9 -9 9 4 0 9 5 20 12
24 7 5 9 2 3 -7 -4 -8 3 -3 16 11 13 14 20 19 14 11 -9 -12 -7 -12 13 -2 12 7
20 16 17 22 -4 5 -1 9 5 9 6 0 9 4 6 8 -2 4 5 14 17 21 18 11 20 11 10 0 -7
-7 -13 -18 -13 -24 0 -5 9 3 19 19 11 17 17 35 14 40 -4 6 2 4 13 -4 10 -8 16
-11 12 -6 -10 12 11 48 22 41 6 -4 7 1 3 11 -5 13 -3 15 7 9 10 -6 12 -4 7 9
-4 10 -3 15 3 11 6 -3 10 1 10 9 0 9 5 16 11 16 5 0 7 -5 3 -12 -4 -7 -3 -8 4
-4 9 5 9 13 2 26 -8 16 -7 18 9 15 16 -3 19 1 15 21 -2 13 -1 24 3 23 20 -3
27 2 13 11 -13 8 -12 10 4 10 15 0 16 3 7 14 -9 11 -9 16 0 22 8 4 9 3 5 -4
-4 -7 -5 -12 -2 -12 5 0 36 59 36 69 0 3 -5 -1 -10 -9 -6 -9 -10 -10 -10 -3 0
6 5 15 11 18 6 4 8 13 5 21 -7 17 10 19 17 2 3 -7 3 2 0 21 -4 21 -2 32 4 28
5 -3 10 0 10 8 0 8 -3 12 -7 10 -4 -2 -5 7 -2 20 2 14 8 25 13 25 5 0 9 5 9
11 0 5 -6 7 -12 3 -9 -5 -9 -2 1 9 9 12 10 17 2 17 -7 0 -9 5 -6 10 4 6 10 8
14 6 4 -3 8 2 8 10 0 8 -6 13 -13 10 -8 -3 -11 0 -7 9 3 8 8 13 12 11 4 -3 8
4 8 15 1 11 -3 17 -9 13 -7 -4 -7 0 1 13 6 11 8 22 6 25 -2 2 -5 21 -7 42 -1
20 -6 40 -10 42 -5 3 -5 11 -1 17 13 20 12 36 -3 48 -17 14 -19 33 -1 23 6 -4
3 3 -8 16 -11 13 -15 21 -10 18 6 -3 10 4 10 17 0 13 -3 21 -6 19 -12 -7 -28
22 -31 54 -1 18 -6 32 -10 32 -4 0 -8 7 -8 15 0 8 -5 15 -11 15 -5 0 -7 5 -4
10 3 6 2 10 -2 10 -5 0 -14 12 -20 28 -17 39 -45 84 -65 103 -10 9 -18 20 -18
24 0 5 -30 37 -67 72 -134 127 -292 204 -448 219 -27 3 -55 6 -62 9 -6 2 -13
2 -15 1z m2 -331 c-7 -8 -17 -15 -23 -15 -6 0 -2 7 9 15 25 19 30 19 14 0z
m105 5 c3 -5 1 -10 -4 -10 -6 0 -11 5 -11 10 0 6 2 10 4 10 3 0 8 -4 11 -10z
m675 -374 c0 -3 -4 -8 -10 -11 -5 -3 -10 -1 -10 4 0 6 5 11 10 11 6 0 10 -2
10 -4z"/>
<path d="M2185 3250 c-3 -6 1 -7 9 -4 18 7 21 14 7 14 -6 0 -13 -4 -16 -10z"/>
<path d="M744 3130 c-56 -22 -149 -157 -179 -259 -7 -22 -5 -23 21 -17 25 6
27 6 12 -6 -13 -9 -15 -17 -8 -28 6 -10 10 -11 10 -2 0 6 9 12 20 12 11 0 20
6 20 13 0 9 2 9 9 -1 6 -10 11 -9 22 4 12 15 12 17 0 9 -10 -5 -12 -4 -7 4 6
9 11 9 24 -1 13 -11 14 -11 7 1 -6 11 -2 13 19 9 14 -3 29 -1 33 5 4 6 1 7 -7
2 -9 -5 -11 -4 -6 4 6 9 11 9 22 0 11 -9 15 -8 20 5 5 14 9 14 22 4 12 -10 14
-10 8 0 -4 6 -5 12 -2 12 11 0 52 -48 71 -83 11 -20 23 -37 27 -37 5 0 8 -9 8
-19 0 -11 4 -21 9 -23 7 -3 61 -100 62 -113 0 -2 15 -35 33 -72 45 -93 50
-108 49 -183 -1 -69 -12 -248 -18 -290 -13 -95 -18 -122 -29 -166 l-12 -49
-62 -15 c-37 -10 -98 -15 -152 -14 -88 1 -90 1 -84 -20 9 -29 54 -96 81 -122
13 -12 19 -24 15 -28 -4 -4 0 -6 8 -4 8 2 14 -2 15 -9 0 -6 4 -15 9 -20 5 -5
6 -3 2 5 -12 20 8 14 24 -7 7 -11 17 -18 22 -15 4 3 8 0 8 -6 0 -6 4 -8 10 -5
5 3 10 1 10 -6 0 -6 8 -9 20 -6 11 3 20 2 20 -2 0 -4 10 -7 23 -6 12 1 27 0
32 -4 20 -11 36 -9 42 5 4 10 9 12 18 4 9 -7 16 -5 26 7 13 17 13 17 -6 3 -19
-14 -19 -14 -6 3 11 14 16 15 29 5 13 -10 14 -10 8 0 -4 7 -1 12 8 12 9 0 16
7 16 15 0 8 7 15 16 15 11 0 14 5 10 16 -4 11 -2 15 8 11 19 -7 28 3 16 18 -7
8 -3 19 11 33 11 12 17 27 14 32 -3 6 0 10 8 10 9 0 13 9 12 25 -2 14 1 23 6
19 5 -3 6 -10 3 -16 -4 -6 -2 -8 4 -4 7 4 8 17 2 37 -7 25 -7 29 4 20 9 -8 12
-6 11 7 0 9 -4 23 -8 30 -6 8 -3 10 9 5 11 -4 15 -3 10 5 -3 6 -2 14 4 17 8 5
7 11 -1 21 -7 9 -8 14 -1 14 6 0 9 11 7 25 -1 14 2 25 8 25 5 0 4 7 -3 15 -9
11 -9 15 -1 15 7 0 9 5 6 10 -4 6 -1 18 7 27 7 9 8 14 2 10 -7 -4 -15 0 -18 9
-3 8 -2 12 4 9 6 -3 10 -1 10 5 0 6 4 8 10 5 7 -4 7 3 0 20 -6 15 -8 31 -4 36
3 5 0 9 -7 9 -8 0 -8 4 -1 13 5 6 6 21 2 32 -5 13 -2 26 8 38 12 14 13 18 3
15 -7 -2 -16 3 -19 11 -2 8 0 11 5 8 5 -3 9 3 9 14 0 10 -4 19 -9 19 -5 0 -5
6 1 13 17 21 18 23 0 40 -11 11 -15 27 -11 48 3 24 2 29 -9 23 -10 -6 -10 -4
1 9 9 11 10 17 2 17 -6 0 -11 5 -11 11 0 5 4 8 8 5 5 -3 9 1 9 9 0 8 -5 11
-10 8 -6 -4 -8 3 -4 16 3 15 0 24 -10 28 -12 5 -12 7 -1 14 11 7 11 9 -1 9
-11 0 -11 3 -1 15 7 9 10 18 6 22 -3 3 -6 0 -6 -8 0 -12 -2 -12 -9 0 -5 8 -8
24 -6 37 1 13 -2 21 -6 18 -5 -3 -9 4 -9 15 0 12 -5 21 -11 21 -8 0 -7 6 2 17
8 10 9 14 2 10 -6 -4 -14 -3 -18 3 -3 5 -1 10 4 10 6 0 11 5 11 10 0 6 -6 9
-12 8 -8 -2 -13 6 -12 19 0 12 -4 21 -9 20 -5 -1 -11 7 -13 18 -1 11 -8 21
-13 23 -6 2 -11 8 -11 13 0 6 5 7 12 3 7 -4 8 -3 4 5 -4 6 -11 9 -16 6 -8 -5
-20 18 -20 38 0 4 -8 15 -17 25 -31 33 -53 62 -47 62 17 0 -118 114 -160 135
-51 26 -120 32 -162 15z m536 -1204 c0 -3 -4 -8 -10 -11 -5 -3 -10 -1 -10 4 0
6 5 11 10 11 6 0 10 -2 10 -4z m-246 -334 c3 -5 -1 -9 -9 -9 -8 0 -12 4 -9 9
3 4 7 8 9 8 2 0 6 -4 9 -8z"/>
<path d="M2220 3051 c-81 -26 -139 -77 -172 -151 -34 -78 -23 -202 24 -254 10
-10 15 -23 12 -28 -3 -4 3 -8 12 -8 10 0 14 -3 11 -7 -4 -3 7 -15 24 -25 17
-10 29 -24 26 -31 -4 -12 11 -16 60 -20 7 0 14 -6 17 -12 3 -8 16 -11 33 -8
20 3 24 2 14 -5 -11 -8 -8 -10 12 -9 14 1 23 5 20 10 -2 4 1 7 6 7 6 0 11 -5
11 -11 0 -5 5 -7 10 -4 6 4 7 11 4 17 -4 6 2 6 15 -1 18 -10 21 -9 21 6 0 15
2 16 10 3 8 -12 10 -12 10 -1 0 11 3 11 16 1 8 -8 14 -9 13 -4 -1 5 -1 16 0
24 1 13 2 13 11 0 8 -13 10 -13 10 2 0 9 5 20 12 24 7 5 8 3 3 -7 -8 -12 -6
-12 8 0 9 7 14 18 10 25 -4 6 1 5 10 -2 14 -12 16 -11 12 6 -2 11 3 23 11 26
8 3 11 12 7 22 -4 11 -2 15 4 11 6 -4 17 1 24 10 10 12 10 14 2 9 -20 -11 -16
20 4 40 13 12 14 19 5 22 -9 3 -8 7 3 18 11 11 12 21 5 33 -5 10 -6 21 -3 25
3 3 0 6 -8 6 -11 0 -11 2 1 10 8 5 10 10 4 10 -7 0 -15 7 -18 16 -6 15 -4 15
11 3 10 -7 7 0 -7 15 -14 16 -18 26 -10 22 8 -4 5 1 -7 12 -13 11 -23 24 -23
29 -1 16 -67 79 -109 102 -46 25 -137 36 -181 22z"/>
<path d="M3336 2931 c-22 -35 -90 -317 -110 -456 -4 -23 -8 -50 -10 -60 -24
-130 -50 -423 -50 -559 1 -71 4 -91 17 -101 9 -7 13 -16 9 -21 -4 -4 2 -2 12
6 18 13 19 13 14 -1 -5 -13 -2 -16 14 -11 12 3 16 7 8 12 -7 5 -6 11 6 21 11
9 15 9 10 2 -5 -9 -2 -11 9 -7 14 6 14 8 -1 19 -15 11 -15 13 7 18 18 5 21 9
10 16 -9 6 -10 10 -2 12 7 3 13 14 13 25 2 16 7 20 23 17 17 -4 18 -3 5 7 -12
9 -12 13 -2 17 10 4 10 8 1 19 -10 12 -9 13 5 8 12 -5 15 -2 9 12 -4 11 -3 15
4 11 6 -4 10 3 8 16 -2 31 13 59 28 50 7 -4 7 0 -2 10 -10 13 -10 17 -1 17 10
0 10 3 0 15 -11 13 -10 14 4 9 18 -7 19 15 1 28 -6 5 -3 8 7 8 9 0 20 5 24 12
4 7 3 8 -4 4 -7 -4 -12 -1 -12 8 0 9 5 16 10 16 6 0 10 5 10 11 0 5 -4 7 -10
4 -6 -3 -7 1 -4 9 3 9 11 13 16 10 6 -4 5 2 -1 14 -8 15 -8 23 1 28 7 5 8 3 3
-7 -5 -8 -4 -10 0 -6 12 10 16 39 5 32 -5 -3 -6 5 -3 17 3 13 6 31 6 41 1 9 5
17 9 17 4 0 8 5 8 11 0 5 -4 7 -10 4 -6 -3 -7 1 -4 9 3 9 11 16 18 16 6 0 4 5
-4 10 -13 9 -13 11 0 21 11 8 12 12 3 16 -7 2 -13 9 -13 14 0 6 5 7 10 4 6 -3
10 -1 10 4 0 6 -6 11 -12 11 -10 0 -9 3 1 9 9 6 10 11 2 15 -8 5 -8 13 0 28 9
16 8 23 -2 29 -11 7 -9 9 6 9 16 0 17 2 5 10 -15 9 -22 70 -8 70 4 0 8 5 8 11
0 5 -4 8 -9 5 -5 -3 -12 1 -15 10 -4 9 -2 13 5 8 8 -4 9 1 4 16 -4 13 -3 20 2
17 5 -3 9 3 9 13 0 12 -4 16 -11 10 -12 -10 -13 29 -1 48 5 8 2 10 -11 5 -15
-6 -16 -4 -6 8 14 17 12 44 -4 60 -6 6 -9 18 -6 27 5 11 3 13 -8 7 -11 -7 -11
-5 1 10 8 10 10 16 3 12 -7 -5 -16 5 -23 27 -13 39 -35 62 -44 47z m81 -163
c2 -17 0 -19 -7 -8 -5 8 -6 18 -4 22 8 12 10 10 11 -14z"/>
<path d="M609 2607 c-49 -38 -79 -134 -74 -240 4 -86 9 -109 37 -185 12 -31
21 -61 20 -65 -1 -5 1 -6 6 -3 5 3 18 -8 30 -24 16 -20 18 -30 9 -34 -6 -3 -1
-3 12 0 19 5 23 3 18 -10 -5 -14 -3 -15 13 -6 13 7 21 7 26 -2 5 -7 3 -8 -6
-3 -9 5 -11 4 -6 -3 10 -16 39 -15 31 1 -4 6 1 3 9 -7 16 -20 16 -20 16 0 0
16 2 17 10 4 9 -13 10 -13 11 0 1 8 1 19 0 24 -1 5 4 4 13 -3 11 -9 16 -9 22
0 4 8 3 9 -4 5 -7 -4 -12 -3 -12 2 0 6 7 13 16 16 9 4 14 13 10 22 -4 10 -2
13 6 8 7 -5 9 1 6 19 -3 15 -2 24 3 22 4 -3 10 -1 14 5 3 5 0 10 -7 10 -10 0
-10 2 1 9 7 5 10 14 7 20 -4 6 -1 11 6 11 9 0 9 3 -2 10 -10 6 -11 10 -2 10 6
0 12 9 12 21 0 14 -4 18 -12 12 -8 -4 -6 3 3 18 14 21 15 28 4 43 -8 10 -11
25 -8 34 4 9 2 13 -4 9 -12 -8 -12 18 0 29 4 4 -3 18 -14 30 -19 20 -20 26 -9
39 11 13 11 16 0 13 -8 -2 -15 2 -15 7 -3 18 -19 50 -32 63 -7 7 -16 19 -20
25 -30 48 -108 72 -144 44z m246 -307 c3 -6 -1 -7 -9 -4 -18 7 -21 14 -7 14 6
0 13 -4 16 -10z"/>
<path d="M3445 2540 c-3 -5 -1 -10 4 -10 6 0 11 5 11 10 0 6 -2 10 -4 10 -3 0
-8 -4 -11 -10z"/>
<path d="M3445 2460 c-3 -5 -1 -10 4 -10 6 0 11 5 11 10 0 6 -2 10 -4 10 -3 0
-8 -4 -11 -10z"/>
<path d="M820 2440 c0 -5 5 -10 11 -10 5 0 7 5 4 10 -3 6 -8 10 -11 10 -2 0
-4 -4 -4 -10z"/>
<path d="M2150 1962 c0 -5 7 -9 15 -9 8 0 12 4 9 9 -3 4 -9 8 -15 8 -5 0 -9
-4 -9 -8z"/>
<path d="M2228 1755 c-2 -1 -36 -6 -77 -9 -41 -4 -77 -9 -81 -11 -4 -3 -24 -7
-44 -11 -40 -6 -165 -43 -231 -67 -131 -49 -248 -123 -299 -189 -33 -44 -53
-104 -49 -147 5 -56 73 -159 95 -145 4 3 5 -2 2 -10 -4 -12 0 -16 15 -16 12 0
24 -7 27 -15 4 -8 10 -12 15 -9 5 3 9 -1 9 -8 0 -9 3 -9 10 2 8 13 10 12 10
-3 0 -15 3 -16 21 -6 12 6 19 7 16 2 -3 -5 -2 -15 4 -23 7 -12 9 -12 9 -1 0
11 3 11 17 0 15 -12 16 -12 10 3 -4 12 -2 15 7 12 8 -3 17 0 22 7 5 8 3 10 -6
4 -10 -6 -12 -4 -7 9 4 10 3 15 -3 11 -6 -3 -10 2 -10 12 0 11 -6 25 -12 32
-7 8 -8 11 -2 8 6 -3 11 0 11 8 0 8 -3 12 -6 10 -4 -2 -11 8 -18 21 -8 18 -8
22 0 17 7 -4 7 -1 -1 9 -10 13 -10 17 0 21 10 4 10 8 -2 16 -13 9 -12 11 3 11
10 0 16 4 12 9 -6 11 13 25 35 26 8 0 14 5 13 12 -2 7 4 10 12 7 8 -4 15 -1
15 5 0 6 7 11 16 11 9 0 12 -5 8 -12 -4 -7 -3 -8 5 -4 9 6 9 11 1 21 -9 11 -7
14 7 14 35 1 59 7 80 21 19 14 23 20 23 38 0 4 5 0 10 -8 7 -11 10 -11 10 -2
0 8 5 10 12 6 7 -5 9 -2 6 8 -4 8 0 15 8 15 7 0 11 -5 7 -10 -3 -5 6 -2 19 7
14 9 28 13 33 9 4 -5 5 -2 0 6 -6 11 -3 13 13 9 23 -6 47 13 34 28 -4 4 0 3
10 -4 12 -10 18 -10 24 -1 5 8 3 9 -6 4 -9 -5 -11 -4 -6 4 6 9 11 9 21 1 16
-13 30 4 19 23 -6 9 -5 9 7 0 9 -8 20 -9 29 -3 20 13 33 12 24 -1 -4 -8 0 -8
15 0 14 8 21 8 21 1 0 -7 6 -7 21 1 15 7 24 8 32 0 7 -7 16 -7 31 1 19 10 20
10 7 -6 -13 -15 -12 -16 12 -7 18 7 28 7 33 -1 5 -7 2 -8 -7 -3 -8 5 -10 4 -6
0 11 -13 38 -15 58 -4 12 6 20 5 24 -1 5 -8 11 -7 21 1 11 9 15 8 20 -4 3 -9
13 -13 25 -10 12 3 19 0 19 -8 0 -11 2 -11 10 1 9 13 10 13 10 0 0 -13 1 -13
10 0 7 11 10 12 10 2 0 -9 7 -11 20 -7 11 3 20 3 20 -2 0 -5 12 -10 26 -11 15
-1 33 -7 40 -12 8 -8 14 -7 17 2 10 25 16 -108 7 -149 -5 -19 -3 -36 3 -42 15
-15 30 -14 22 2 -4 6 3 1 14 -12 12 -13 22 -20 22 -17 1 3 2 11 3 18 0 6 7 13
15 16 9 3 11 0 6 -8 -5 -9 -4 -11 4 -6 6 4 8 12 5 18 -5 8 -1 9 11 4 15 -5 16
-4 6 8 -10 12 -8 16 8 21 11 3 30 20 43 37 12 18 17 28 11 25 -7 -4 -14 -3
-18 3 -3 5 1 10 9 10 8 0 18 5 22 12 4 7 3 8 -4 4 -16 -9 -15 7 0 22 9 9 9 12
-1 12 -11 0 -11 3 -1 15 10 12 10 15 0 15 -10 0 -10 3 0 15 9 10 9 15 1 15 -6
0 -11 7 -11 15 0 8 -5 15 -11 15 -5 0 -7 4 -4 10 10 16 -66 88 -125 119 -76
39 -144 60 -245 77 -36 5 -232 13 -237 9z m-349 -341 c-6 -7 -16 -11 -23 -7
-7 5 -5 9 7 11 9 2 14 8 11 14 -4 7 -2 8 5 4 9 -6 9 -11 0 -22z"/>
<path d="M1199 1713 c-13 -16 -12 -17 4 -4 9 7 17 15 17 17 0 8 -8 3 -21 -13z"/>
<path d="M2258 1375 c-2 -1 -28 -5 -58 -8 -144 -13 -296 -103 -285 -167 4 -19
35 -78 35 -66 0 5 12 -1 26 -15 14 -13 29 -23 32 -22 4 0 6 -3 5 -7 -2 -5 6
-7 17 -5 11 2 20 -2 21 -8 0 -7 4 -3 9 8 7 17 9 17 9 3 1 -10 8 -18 17 -18 9
0 12 5 8 12 -5 7 -3 8 7 2 23 -14 51 -15 67 -2 10 8 13 9 9 2 -10 -17 19 -25
32 -10 6 7 7 17 3 21 -4 5 -1 5 6 1 7 -4 10 -11 7 -16 -3 -5 0 -12 6 -16 8 -5
9 -3 4 6 -6 10 -3 12 14 7 14 -3 28 1 40 15 14 14 21 16 26 7 6 -8 4 -10 -5
-4 -9 5 -11 4 -6 -4 4 -6 12 -9 17 -5 5 3 6 10 3 16 -5 7 0 9 14 6 16 -5 22
-2 22 10 0 13 3 12 16 -4 8 -10 13 -14 10 -8 -3 7 1 15 10 18 8 3 13 10 10 14
-3 5 1 9 9 10 8 1 22 3 30 4 9 1 14 7 11 15 -4 9 0 13 12 11 9 -2 16 3 15 10
-2 6 1 12 7 12 5 0 6 7 3 17 -4 10 -2 14 4 10 19 -12 7 38 -16 70 -27 37 -78
64 -130 70 -20 2 -48 6 -63 7 -15 2 -28 3 -30 1z"/>
<path d="M2711 1254 c0 -11 3 -14 6 -6 3 7 2 16 -1 19 -3 4 -6 -2 -5 -13z"/>
<path d="M1361 599 c-121 -36 -201 -161 -189 -297 5 -55 38 -139 61 -153 5 -4
6 -13 2 -20 -5 -8 -5 -11 -1 -7 11 9 46 -23 39 -35 -3 -6 -1 -7 5 -3 7 4 12 1
12 -6 0 -9 3 -9 10 2 8 13 10 12 10 -4 0 -12 5 -16 14 -13 8 3 16 1 18 -5 4
-12 29 -20 61 -19 10 0 15 -5 11 -11 -4 -6 1 -8 16 -3 17 6 21 4 14 -6 -6 -12
-5 -12 9 0 9 7 17 10 17 7 0 -4 10 -2 21 5 12 6 19 7 15 1 -3 -5 1 -13 10 -16
11 -4 15 -2 11 8 -4 11 0 13 19 10 13 -2 24 0 24 6 0 6 12 8 26 6 23 -4 24 -3
12 11 -9 12 -9 15 0 9 7 -4 12 -2 12 4 0 6 5 8 10 5 6 -3 10 -1 10 5 0 6 4 8
10 5 6 -4 7 1 3 11 -4 12 -3 15 5 10 7 -4 12 -1 12 9 0 10 5 15 14 12 9 -4 13
3 12 22 0 16 7 36 17 45 20 20 22 36 5 36 -6 0 -3 7 8 15 19 15 19 15 -1 9
-20 -6 -20 -5 -1 10 19 16 19 16 -4 41 -13 14 -18 25 -12 25 7 0 12 -4 12 -10
0 -5 4 -10 10 -10 5 0 7 7 4 15 -4 8 -12 15 -20 15 -8 0 -13 6 -11 13 1 9 -30
13 -125 15 -140 3 -130 8 -130 -63 0 -49 1 -55 10 -54 19 3 33 -2 28 -10 -3
-5 4 -11 17 -15 12 -3 24 -1 25 4 2 6 8 8 12 5 31 -19 -38 -65 -96 -65 -42 0
-107 37 -99 57 2 7 1 14 -4 17 -11 7 -13 94 -1 101 5 3 10 12 10 18 0 7 -4 6
-10 -3 -5 -8 -10 -10 -10 -4 0 5 9 20 20 31 14 15 16 23 7 26 -9 4 -9 6 1 6 8
1 10 6 6 14 -5 7 -2 7 10 -2 9 -8 16 -10 15 -5 -4 21 2 26 16 14 13 -11 14
-10 10 3 -4 8 -2 18 4 22 6 3 11 1 11 -4 0 -6 5 -11 11 -11 5 0 7 5 4 10 -3 6
-1 10 4 10 6 0 11 -4 11 -10 0 -12 22 -9 31 4 9 12 59 -23 60 -43 0 -10 3 -11
6 -4 3 10 7 10 18 0 7 -7 11 -15 9 -19 -2 -3 5 -4 16 -1 11 3 20 9 20 14 0 5
7 6 15 3 9 -4 18 2 24 17 5 13 10 17 10 10 1 -12 4 -12 13 -3 10 10 10 15 -2
22 -11 7 -11 10 -2 10 8 0 6 8 -7 22 -11 11 -18 26 -14 31 3 6 1 7 -6 3 -6 -4
-14 0 -17 8 -3 8 -32 28 -63 44 -63 31 -145 39 -210 21z"/>
<path d="M330 592 l-35 -3 0 -256 c0 -196 3 -257 13 -261 7 -2 9 -9 5 -15 -4
-7 0 -6 10 1 14 12 16 11 12 -5 -2 -12 2 -20 10 -20 8 0 12 4 9 8 -2 4 10 6
28 5 18 -2 38 1 45 6 7 6 14 4 19 -3 4 -7 3 -9 -3 -6 -5 3 -10 0 -10 -8 0 -11
4 -12 14 -4 7 6 13 8 13 3 0 -5 7 0 15 10 14 19 15 19 15 1 0 -17 1 -17 19 -1
14 13 21 14 27 5 5 -8 3 -10 -7 -4 -8 5 -11 4 -6 -1 5 -5 22 -9 38 -10 24 -1
29 2 24 15 -5 12 -3 13 6 4 6 -6 18 -9 26 -6 11 4 11 8 -3 18 -14 9 -14 14 -4
20 9 6 11 4 5 -6 -5 -8 -4 -10 0 -6 17 15 14 39 -3 32 -14 -5 -14 -3 1 13 17
18 17 20 0 33 -17 13 -17 13 -3 -6 14 -18 14 -19 -2 -7 -10 8 -17 17 -16 20 3
28 -5 32 -72 32 -72 0 -85 9 -57 39 10 11 9 13 -1 7 -9 -5 -11 2 -7 29 3 26 1
34 -8 28 -7 -4 -4 6 7 21 16 25 16 28 2 23 -20 -8 -20 -3 0 17 14 15 14 16 -1
16 -9 0 -13 5 -10 10 4 6 12 7 18 3 9 -5 9 -3 1 8 -7 8 -10 26 -8 42 1 15 -1
25 -6 22 -4 -3 -6 4 -3 15 3 11 10 17 17 14 6 -3 0 5 -14 17 -15 13 -18 20 -8
16 10 -3 19 0 22 9 3 8 2 13 -2 11 -9 -6 -33 19 -25 27 4 3 1 6 -6 6 -7 0 -10
4 -7 9 7 10 -44 17 -94 13z"/>
<path d="M843 592 l-33 -3 0 -256 c0 -250 0 -255 21 -260 16 -4 17 -8 7 -14
-10 -7 -9 -9 5 -9 10 0 16 -4 13 -8 -3 -5 1 -9 9 -9 8 0 11 5 8 10 -4 6 0 8 9
4 9 -3 21 0 27 6 8 8 9 5 6 -12 -3 -15 0 -19 8 -14 7 4 18 8 25 9 8 2 17 6 20
10 4 4 -1 4 -10 1 -10 -3 -20 -2 -23 4 -4 5 -3 9 2 8 33 -6 40 2 34 33 -5 24
-3 36 8 46 12 9 12 12 2 10 -7 -2 -15 5 -16 15 -2 9 1 15 6 11 15 -9 10 13 -7
30 -14 15 -13 16 8 17 22 0 22 1 3 9 -11 5 -15 9 -9 9 11 1 12 70 0 89 -4 8
-1 12 11 13 13 1 11 3 -7 9 -14 4 -18 8 -9 9 19 1 18 39 -2 53 -11 8 -11 9 4
4 20 -6 21 -2 7 24 -6 10 -6 21 -2 24 8 4 8 36 3 90 -1 5 -4 6 -8 3 -3 -4 -11
3 -17 15 -11 23 -33 27 -103 20z"/>
<path d="M1944 592 c-20 -3 -21 -7 -19 -200 2 -202 7 -233 44 -266 14 -13 18
-22 10 -26 -6 -4 4 -10 21 -13 17 -4 29 -11 26 -16 -3 -5 1 -12 10 -15 10 -4
13 -2 9 7 -4 6 3 1 14 -13 14 -16 19 -19 15 -7 -5 13 -2 16 10 11 9 -3 14 -10
11 -14 -3 -4 2 -10 10 -14 8 -3 17 -1 20 5 6 9 46 6 65 -6 5 -3 10 2 10 12 0
15 2 15 9 3 6 -8 7 -19 4 -25 -3 -5 4 0 16 12 22 23 37 31 26 14 -3 -5 -1 -13
5 -16 6 -4 9 -1 8 7 -2 7 3 12 11 10 8 -2 11 3 8 12 -4 10 -1 13 8 9 8 -3 12
-10 8 -17 -4 -6 1 -5 10 3 19 15 23 26 5 15 -7 -5 -8 -3 -4 5 5 7 15 10 23 7
12 -5 14 -1 10 14 -5 18 -3 19 11 8 12 -10 14 -10 8 -1 -4 7 -3 13 1 13 5 0
14 9 21 21 10 15 10 19 1 14 -7 -5 -10 -3 -7 6 3 8 9 13 14 12 5 -1 10 10 10
23 1 13 -1 22 -5 19 -4 -2 -8 2 -8 10 0 8 4 12 9 9 13 -8 6 29 -7 38 -6 5 -5
8 3 8 6 0 12 5 12 11 0 5 -6 7 -12 3 -7 -4 -5 2 5 13 14 16 15 23 6 29 -8 5
-10 3 -4 -6 5 -9 4 -11 -3 -6 -9 5 -7 14 4 31 15 23 15 25 -1 31 -13 5 -14 9
-4 15 9 5 10 12 3 21 -9 12 -11 29 -4 43 7 14 5 31 -4 44 -9 12 -7 13 6 8 12
-4 15 -2 11 9 -3 7 -9 14 -14 14 -5 0 -8 3 -7 8 1 4 -1 17 -6 30 -7 20 -14 22
-74 22 l-67 0 0 -181 0 -181 -28 -24 c-30 -26 -75 -31 -108 -13 -12 6 -18 17
-15 24 3 8 0 17 -6 21 -7 5 -8 2 -3 -6 6 -9 4 -11 -4 -6 -9 6 -8 13 5 27 16
18 17 19 1 13 -13 -5 -16 -2 -11 10 3 9 11 13 18 9 6 -4 4 1 -4 11 -19 24 -22
69 -3 62 17 -7 17 -1 -3 18 -9 9 -11 16 -4 16 6 0 8 5 3 13 -10 16 -11 77 -1
71 10 -6 11 10 1 20 -15 15 -11 38 5 32 10 -4 6 3 -8 15 -14 11 -18 18 -10 14
10 -4 9 -2 -2 8 -10 8 -15 16 -12 19 6 7 -81 14 -112 10z"/>
<path d="M2673 592 l-43 -3 0 -253 c0 -251 0 -254 23 -270 12 -9 17 -15 11
-12 -6 3 -11 -1 -11 -9 0 -9 5 -11 11 -6 21 16 45 20 52 9 5 -7 2 -8 -7 -3
-12 7 -12 5 -1 -6 11 -12 14 -12 21 0 7 11 13 11 32 0 23 -12 23 -11 9 6 -14
17 -14 17 7 7 16 -9 23 -9 26 1 3 6 6 3 6 -7 1 -18 2 -18 20 -2 14 13 21 14
27 5 5 -8 3 -10 -7 -4 -8 5 -10 4 -6 0 10 -12 38 -15 31 -4 -3 5 2 9 11 9 9 0
14 -4 11 -9 -6 -9 2 -9 42 4 19 6 20 10 10 23 -10 12 -10 14 0 8 6 -4 12 -4
13 1 6 45 4 65 -4 70 -6 4 -7 1 -2 -8 6 -11 5 -11 -4 -3 -7 6 -14 20 -15 30
-2 16 -13 19 -72 22 -62 3 -83 11 -84 35 0 4 5 7 11 7 5 0 7 -5 3 -12 -4 -6
-3 -8 4 -4 6 3 9 16 7 29 -4 21 -3 21 9 4 11 -14 15 -15 19 -5 4 10 8 10 16
-2 7 -10 11 -11 11 -2 0 6 7 12 15 12 8 0 15 -5 15 -11 0 -6 7 -3 16 5 17 18
28 21 19 7 -3 -5 0 -13 6 -17 8 -4 9 -3 5 4 -4 7 -3 12 1 12 5 0 9 9 10 20 1
13 -2 18 -9 14 -7 -5 -8 -2 -2 7 12 20 14 39 3 39 -5 0 -8 3 -7 8 1 4 -1 17
-6 30 -7 20 -14 22 -71 22 -47 0 -64 4 -69 15 -4 10 1 15 17 16 12 0 16 3 10
6 -7 2 -13 10 -13 15 0 6 3 8 6 5 4 -3 16 -2 27 4 14 8 18 8 13 0 -9 -14 7
-14 21 0 8 8 13 7 18 -2 5 -8 4 -10 -3 -5 -7 4 -12 2 -12 -3 0 -15 11 -13 34
4 16 12 22 12 28 2 5 -8 8 -6 8 8 0 15 2 17 9 6 6 -9 10 -4 13 18 3 18 0 35
-5 38 -6 4 -7 1 -2 -7 5 -8 4 -11 -3 -6 -14 9 -3 38 12 30 6 -3 0 3 -13 14
-13 11 -21 24 -17 31 5 7 -6 11 -36 11 -24 1 -74 2 -113 3 -38 1 -89 1 -112
-1z"/>
<path d="M3456 580 c-14 -53 3 -118 28 -103 6 4 5 0 -2 -9 -11 -14 -10 -16 12
-14 14 2 25 0 24 -3 0 -3 1 -9 2 -13 1 -5 4 -84 5 -178 3 -196 3 -195 12 -187
3 4 11 -3 17 -15 10 -19 20 -23 61 -23 51 0 75 9 75 28 0 6 -7 2 -16 -9 -14
-17 -14 -16 0 9 10 16 12 27 6 27 -6 0 -8 5 -5 10 4 6 10 8 14 6 3 -3 7 4 7
14 0 12 -5 16 -16 12 -13 -5 -13 -3 1 14 18 21 14 48 -4 37 -8 -5 -8 -2 0 8
10 12 10 18 0 29 -9 10 -9 11 1 6 6 -4 12 -3 12 1 0 5 -6 15 -12 22 -11 11
-10 13 3 8 19 -6 19 24 0 46 -9 12 -9 17 0 23 8 5 9 3 4 -6 -5 -8 -4 -11 3 -6
6 4 9 13 6 21 -4 8 -11 12 -18 8 -6 -4 -5 1 3 10 11 14 11 17 0 17 -11 0 -11
2 1 10 12 8 13 11 1 19 -11 7 -11 10 0 15 11 5 12 7 1 12 -10 5 -9 9 4 18 13
10 14 15 4 21 -9 6 -11 4 -5 -5 6 -9 4 -11 -4 -5 -9 5 -10 10 -2 18 14 14 14
30 1 22 -6 -3 -7 1 -4 9 3 9 11 13 16 10 6 -4 6 1 -1 13 -6 11 -7 23 -3 27 3
4 -2 4 -13 0 -14 -6 -17 -4 -12 9 9 25 -8 30 -110 31 -75 1 -94 -2 -97 -14z
m194 -524 c0 -2 -7 -7 -16 -10 -8 -3 -12 -2 -9 4 6 10 25 14 25 6z"/>
<path d="M2403 435 c0 -8 4 -12 9 -9 5 3 6 10 3 15 -9 13 -12 11 -12 -6z"/>
<path d="M2130 26 c0 -2 7 -7 16 -10 8 -3 12 -2 9 4 -6 10 -25 14 -25 6z"/>
</g>
</svg>
